<svg xmlns="http://www.w3.org/2000/svg" version="1.1" viewBox="0.00 0.00 512.00 512.00" width="512.00" height="512.00">
<g stroke-width="2.00" fill="none" stroke-linecap="butt">
<path stroke="#919190" d="&#10;  M 334.78 204.94&#10;  Q 334.57 234.91 335.06 260.39&#10;  Q 335.16 265.48 339.27 265.68&#10;  Q 339.41 265.69 339.45 265.69&#10;  Q 343.66 266.19 343.71 262.19&#10;  Q 343.95 243.98 343.71 217.25&#10;  Q 343.70 215.54 344.16 205.14&#10;  Q 344.18 204.55 344.77 204.55&#10;  L 421.49 204.55&#10;  A 0.74 0.74 0.0 0 1 422.23 205.29&#10;  L 422.23 256.58&#10;  Q 422.23 260.37 426.02 260.37&#10;  L 428.55 260.37&#10;  Q 432.37 260.37 432.36 256.55&#10;  Q 432.29 229.78 432.32 202.12&#10;  Q 432.33 198.53 431.92 197.52&#10;  Q 430.82 194.79 427.45 194.70&#10;  Q 395.00 193.80 356.01 194.24&#10;  Q 345.81 194.35 336.00 194.26&#10;  Q 298.25 193.91 260.50 194.36&#10;  C 246.69 194.52 227.27 194.05 211.49 194.12&#10;  Q 160.84 194.35 89.25 194.19&#10;  C 86.68 194.18 82.02 193.98 79.75 195.38&#10;  Q 77.39 196.83 77.38 200.94&#10;  Q 77.30 226.23 77.16 251.25&#10;  Q 77.13 256.91 77.40 258.02&#10;  C 78.11 260.91 81.87 260.91 84.10 260.33&#10;  Q 87.35 259.50 87.37 257.11&#10;  Q 87.50 235.21 87.39 205.15&#10;  A 0.64 0.64 0.0 0 1 88.03 204.51&#10;  L 162.47 204.51&#10;  Q 162.91 204.51 162.90 204.95&#10;  Q 162.29 233.47 163.09 259.48&#10;  Q 163.26 264.94 168.75 263.93&#10;  Q 170.18 263.67 171.20 262.27&#10;  Q 171.82 261.41 171.81 259.61&#10;  C 171.79 255.05 172.18 250.61 172.13 246.47&#10;  Q 171.74 217.07 171.98 212.25&#10;  Q 172.16 208.63 172.22 205.21&#10;  A 0.58 0.58 0.0 0 1 172.80 204.64&#10;  Q 206.13 204.53 239.51 204.47&#10;  Q 243.41 204.46 246.52 204.65&#10;  A 0.65 0.64 1.9 0 1 247.13 205.29&#10;  L 247.20 344.26&#10;  Q 247.20 348.96 252.26 349.32&#10;  Q 252.36 349.33 252.45 349.31&#10;  Q 256.79 348.53 256.81 344.26&#10;  L 257.49 204.78&#10;  Q 257.49 204.31 257.97 204.31&#10;  L 334.53 204.68&#10;  A 0.26 0.25 2.2 0 1 334.78 204.94"/>
<path stroke="#919190" d="&#10;  M 220.2555 234.6134&#10;  A 3.69 3.69 0.0 0 0 216.5591 230.9299&#10;  L 216.3591 230.9302&#10;  A 3.69 3.69 0.0 0 0 212.6755 234.6266&#10;  L 212.7245 262.6666&#10;  A 3.69 3.69 0.0 0 0 216.4209 266.3501&#10;  L 216.6209 266.3498&#10;  A 3.69 3.69 0.0 0 0 220.3045 262.6534&#10;  L 220.2555 234.6134"/>
<path stroke="#919190" d="&#10;  M 391.8666 234.5462&#10;  A 3.42 3.42 0.0 0 0 388.4706 231.1024&#10;  L 387.9106 231.0985&#10;  A 3.42 3.42 0.0 0 0 384.4668 234.4945&#10;  L 384.2734 262.1938&#10;  A 3.42 3.42 0.0 0 0 387.6694 265.6376&#10;  L 388.2294 265.6415&#10;  A 3.42 3.42 0.0 0 0 391.6732 262.2455&#10;  L 391.8666 234.5462"/>
<path stroke="#919190" d="&#10;  M 123.93 234.79&#10;  A 3.60 3.60 0.0 0 0 120.33 231.19&#10;  L 120.13 231.19&#10;  A 3.60 3.60 0.0 0 0 116.53 234.79&#10;  L 116.53 262.31&#10;  A 3.60 3.60 0.0 0 0 120.13 265.91&#10;  L 120.33 265.91&#10;  A 3.60 3.60 0.0 0 0 123.93 262.31&#10;  L 123.93 234.79"/>
<path stroke="#919190" d="&#10;  M 295.6216 234.6770&#10;  A 3.53 3.53 0.0 0 0 292.0793 231.1593&#10;  L 291.6193 231.1609&#10;  A 3.53 3.53 0.0 0 0 288.1016 234.7032&#10;  L 288.1984 262.4230&#10;  A 3.53 3.53 0.0 0 0 291.7407 265.9407&#10;  L 292.2007 265.9391&#10;  A 3.53 3.53 0.0 0 0 295.7184 262.3968&#10;  L 295.6216 234.6770"/>
</g>
<path fill="#ffffff" d="&#10;  M 512.00 0.00&#10;  L 512.00 512.00&#10;  L 0.00 512.00&#10;  L 0.00 0.00&#10;  L 512.00 0.00&#10;  Z&#10;  M 334.78 204.94&#10;  Q 334.57 234.91 335.06 260.39&#10;  Q 335.16 265.48 339.27 265.68&#10;  Q 339.41 265.69 339.45 265.69&#10;  Q 343.66 266.19 343.71 262.19&#10;  Q 343.95 243.98 343.71 217.25&#10;  Q 343.70 215.54 344.16 205.14&#10;  Q 344.18 204.55 344.77 204.55&#10;  L 421.49 204.55&#10;  A 0.74 0.74 0.0 0 1 422.23 205.29&#10;  L 422.23 256.58&#10;  Q 422.23 260.37 426.02 260.37&#10;  L 428.55 260.37&#10;  Q 432.37 260.37 432.36 256.55&#10;  Q 432.29 229.78 432.32 202.12&#10;  Q 432.33 198.53 431.92 197.52&#10;  Q 430.82 194.79 427.45 194.70&#10;  Q 395.00 193.80 356.01 194.24&#10;  Q 345.81 194.35 336.00 194.26&#10;  Q 298.25 193.91 260.50 194.36&#10;  C 246.69 194.52 227.27 194.05 211.49 194.12&#10;  Q 160.84 194.35 89.25 194.19&#10;  C 86.68 194.18 82.02 193.98 79.75 195.38&#10;  Q 77.39 196.83 77.38 200.94&#10;  Q 77.30 226.23 77.16 251.25&#10;  Q 77.13 256.91 77.40 258.02&#10;  C 78.11 260.91 81.87 260.91 84.10 260.33&#10;  Q 87.35 259.50 87.37 257.11&#10;  Q 87.50 235.21 87.39 205.15&#10;  A 0.64 0.64 0.0 0 1 88.03 204.51&#10;  L 162.47 204.51&#10;  Q 162.91 204.51 162.90 204.95&#10;  Q 162.29 233.47 163.09 259.48&#10;  Q 163.26 264.94 168.75 263.93&#10;  Q 170.18 263.67 171.20 262.27&#10;  Q 171.82 261.41 171.81 259.61&#10;  C 171.79 255.05 172.18 250.61 172.13 246.47&#10;  Q 171.74 217.07 171.98 212.25&#10;  Q 172.16 208.63 172.22 205.21&#10;  A 0.58 0.58 0.0 0 1 172.80 204.64&#10;  Q 206.13 204.53 239.51 204.47&#10;  Q 243.41 204.46 246.52 204.65&#10;  A 0.65 0.64 1.9 0 1 247.13 205.29&#10;  L 247.20 344.26&#10;  Q 247.20 348.96 252.26 349.32&#10;  Q 252.36 349.33 252.45 349.31&#10;  Q 256.79 348.53 256.81 344.26&#10;  L 257.49 204.78&#10;  Q 257.49 204.31 257.97 204.31&#10;  L 334.53 204.68&#10;  A 0.26 0.25 2.2 0 1 334.78 204.94&#10;  Z&#10;  M 220.2555 234.6134&#10;  A 3.69 3.69 0.0 0 0 216.5591 230.9299&#10;  L 216.3591 230.9302&#10;  A 3.69 3.69 0.0 0 0 212.6755 234.6266&#10;  L 212.7245 262.6666&#10;  A 3.69 3.69 0.0 0 0 216.4209 266.3501&#10;  L 216.6209 266.3498&#10;  A 3.69 3.69 0.0 0 0 220.3045 262.6534&#10;  L 220.2555 234.6134&#10;  Z&#10;  M 391.8666 234.5462&#10;  A 3.42 3.42 0.0 0 0 388.4706 231.1024&#10;  L 387.9106 231.0985&#10;  A 3.42 3.42 0.0 0 0 384.4668 234.4945&#10;  L 384.2734 262.1938&#10;  A 3.42 3.42 0.0 0 0 387.6694 265.6376&#10;  L 388.2294 265.6415&#10;  A 3.42 3.42 0.0 0 0 391.6732 262.2455&#10;  L 391.8666 234.5462&#10;  Z&#10;  M 123.93 234.79&#10;  A 3.60 3.60 0.0 0 0 120.33 231.19&#10;  L 120.13 231.19&#10;  A 3.60 3.60 0.0 0 0 116.53 234.79&#10;  L 116.53 262.31&#10;  A 3.60 3.60 0.0 0 0 120.13 265.91&#10;  L 120.33 265.91&#10;  A 3.60 3.60 0.0 0 0 123.93 262.31&#10;  L 123.93 234.79&#10;  Z&#10;  M 295.6216 234.6770&#10;  A 3.53 3.53 0.0 0 0 292.0793 231.1593&#10;  L 291.6193 231.1609&#10;  A 3.53 3.53 0.0 0 0 288.1016 234.7032&#10;  L 288.1984 262.4230&#10;  A 3.53 3.53 0.0 0 0 291.7407 265.9407&#10;  L 292.2007 265.9391&#10;  A 3.53 3.53 0.0 0 0 295.7184 262.3968&#10;  L 295.6216 234.6770&#10;  Z"/>
<path fill="#222221" d="&#10;  M 334.78 204.94&#10;  A 0.26 0.25 2.2 0 0 334.53 204.68&#10;  L 257.97 204.31&#10;  Q 257.49 204.31 257.49 204.78&#10;  L 256.81 344.26&#10;  Q 256.79 348.53 252.45 349.31&#10;  Q 252.36 349.33 252.26 349.32&#10;  Q 247.20 348.96 247.20 344.26&#10;  L 247.13 205.29&#10;  A 0.65 0.64 1.9 0 0 246.52 204.65&#10;  Q 243.41 204.46 239.51 204.47&#10;  Q 206.13 204.53 172.80 204.64&#10;  A 0.58 0.58 0.0 0 0 172.22 205.21&#10;  Q 172.16 208.63 171.98 212.25&#10;  Q 171.74 217.07 172.13 246.47&#10;  C 172.18 250.61 171.79 255.05 171.81 259.61&#10;  Q 171.82 261.41 171.20 262.27&#10;  Q 170.18 263.67 168.75 263.93&#10;  Q 163.26 264.94 163.09 259.48&#10;  Q 162.29 233.47 162.90 204.95&#10;  Q 162.91 204.51 162.47 204.51&#10;  L 88.03 204.51&#10;  A 0.64 0.64 0.0 0 0 87.39 205.15&#10;  Q 87.50 235.21 87.37 257.11&#10;  Q 87.35 259.50 84.10 260.33&#10;  C 81.87 260.91 78.11 260.91 77.40 258.02&#10;  Q 77.13 256.91 77.16 251.25&#10;  Q 77.30 226.23 77.38 200.94&#10;  Q 77.39 196.83 79.75 195.38&#10;  C 82.02 193.98 86.68 194.18 89.25 194.19&#10;  Q 160.84 194.35 211.49 194.12&#10;  C 227.27 194.05 246.69 194.52 260.50 194.36&#10;  Q 298.25 193.91 336.00 194.26&#10;  Q 345.81 194.35 356.01 194.24&#10;  Q 395.00 193.80 427.45 194.70&#10;  Q 430.82 194.79 431.92 197.52&#10;  Q 432.33 198.53 432.32 202.12&#10;  Q 432.29 229.78 432.36 256.55&#10;  Q 432.37 260.37 428.55 260.37&#10;  L 426.02 260.37&#10;  Q 422.23 260.37 422.23 256.58&#10;  L 422.23 205.29&#10;  A 0.74 0.74 0.0 0 0 421.49 204.55&#10;  L 344.77 204.55&#10;  Q 344.18 204.55 344.16 205.14&#10;  Q 343.70 215.54 343.71 217.25&#10;  Q 343.95 243.98 343.71 262.19&#10;  Q 343.66 266.19 339.45 265.69&#10;  Q 339.41 265.69 339.27 265.68&#10;  Q 335.16 265.48 335.06 260.39&#10;  Q 334.57 234.91 334.78 204.94&#10;  Z"/>
<rect fill="#222221" x="-3.79" y="-17.71" transform="translate(216.49,248.64) rotate(-0.1)" width="7.58" height="35.42" rx="3.69"/>
<rect fill="#222221" x="-3.70" y="-17.27" transform="translate(388.07,248.37) rotate(0.4)" width="7.40" height="34.54" rx="3.42"/>
<rect fill="#222221" x="116.53" y="231.19" width="7.40" height="34.72" rx="3.60"/>
<rect fill="#222221" x="-3.76" y="-17.39" transform="translate(291.91,248.55) rotate(-0.2)" width="7.52" height="34.78" rx="3.53"/>
</svg>